# xmcd
#
# Track frame offsets:
#	150
#	13257
#	37425
#	63230
#	79329
#	96515
#	123192
#	142650
#	162537
#
# Disc length: 2793 seconds
#
# Revision: 1
# Processed by: cddbd v1.4PL0 Copyright (c) Steve Scherf et al.
# Submitted via: audiograbber 1.81.01
#
DISCID=7c0ae709
DTITLE=Smoky Greenwell - Blow-Out
DYEAR=1998
DGENRE=Blues
TTITLE0=Blowout
TTITLE1=Watermelon Man
TTITLE2=The Way You Do The Things You Do
TTITLE3=Wake Up Call
TTITLE4=Smoky Side
TTITLE5=Spats
TTITLE6=Rootin' and Tootin'
TTITLE7=Whipped Cream
TTITLE8=Baby Where Did You Sleep Last Night?
EXTD=
EXTT0=
EXTT1=
EXTT2=
EXTT3=
EXTT4=
EXTT5=
EXTT6=
EXTT7=
EXTT8=
PLAYORDER=
